<?xml version="1.0" encoding="utf-8"?>
<!-- Generator: Adobe Illustrator 16.0.0, SVG Export Plug-In . SVG Version: 6.00 Build 0)  -->
<!DOCTYPE svg PUBLIC "-//W3C//DTD SVG 1.1//EN" "http://www.w3.org/Graphics/SVG/1.1/DTD/svg11.dtd">
<svg version="1.1" id="Layer_1" xmlns="http://www.w3.org/2000/svg" xmlns:xlink="http://www.w3.org/1999/xlink" x="0px" y="0px"
	 width="518.847px" height="155.905px" viewBox="0 0 518.847 155.905" enable-background="new 0 0 518.847 155.905"
	 xml:space="preserve">
<g>
	<path fill="#FF5C39" d="M85.38,0C42.328,0,7.428,34.904,7.428,77.954c0,0.435,0.027,0.86,0.033,1.291l34.92-20.461l41.034,23.705
		l-0.002,48.43l-30.533,17.886c9.897,4.548,20.896,7.102,32.5,7.102c43.046,0,77.951-34.899,77.951-77.951
		C163.331,34.904,128.426,0,85.38,0z"/>
	<path fill="#54585A" d="M7.46,79.245L0,83.62l-0.038,48.422l41.063,23.708l0,0l11.854-6.946
		C26.434,136.65,7.967,110.138,7.46,79.245z"/>
	<linearGradient id="SVGID_1_" gradientUnits="userSpaceOnUse" x1="23.8687" y1="126.6504" x2="75.7294" y2="74.7896">
		<stop  offset="0" style="stop-color:#FF5C39"/>
		<stop  offset="0.8" style="stop-color:#485CC7"/>
	</linearGradient>
	<path fill="url(#SVGID_1_)" d="M42.381,58.784L7.46,79.245c0.507,30.893,18.973,57.405,45.419,69.559l30.533-17.886l0.002-48.443
		L42.381,58.784z"/>
</g>
<g>
	<path fill="#54585A" d="M173.159,59.224h23.131v4.58h-8.928v27.107h-5.181V63.804h-9.022V59.224z"/>
	<path fill="#54585A" d="M219.648,77.219h-13.692v13.692h-5.135V59.224h5.135v13.508h13.692V59.224h5.181v31.687h-5.181V77.219z"/>
	<path fill="#54585A" d="M231.892,59.224h19.982v4.487h-14.848v8.974h12.071v4.441h-12.071v9.251h14.848v4.533h-19.982V59.224z"/>
	<path fill="#54585A" d="M287.047,63.942c0,0-6.476-0.74-9.159-0.74c-3.885,0-5.875,1.389-5.875,4.118
		c0,2.96,1.666,3.654,7.08,5.134c6.66,1.85,9.066,3.608,9.066,9.021c0,6.938-4.35,9.946-10.594,9.946
		c-4.117,0-10.362-1.25-10.362-1.25l0.509-4.117c0,0,6.245,0.833,9.528,0.833c3.931,0,5.736-1.758,5.736-5.089
		c0-2.683-1.433-3.607-6.291-4.765c-6.846-1.758-9.806-3.838-9.806-9.344c0-6.384,4.209-9.02,10.545-9.02
		c4.025,0,10.039,1.109,10.039,1.109L287.047,63.942z"/>
	<path fill="#54585A" d="M291.482,59.224h23.13v4.58h-8.928v27.107h-5.18V63.804h-9.022V59.224z"/>
	<path fill="#54585A" d="M322.217,59.224h10.221l7.864,31.687h-5.181l-1.71-6.799h-12.166l-1.712,6.799h-5.137L322.217,59.224z
		 M322.262,79.578h10.13l-3.885-16.051h-2.313L322.262,79.578z"/>
	<path fill="#54585A" d="M340.074,59.224h23.128v4.58h-8.929v27.107h-5.181V63.804h-9.019V59.224z"/>
	<path fill="#54585A" d="M379.21,86.933c4.256,0,6.524-1.896,6.524-6.152V59.224h5.181v21.463c0,7.634-4.119,10.733-11.706,10.733
		c-7.538,0-11.61-3.099-11.61-10.733V59.224h5.181v21.557C372.781,85.083,375,86.933,379.21,86.933z"/>
	<path fill="#54585A" d="M416.249,63.942c0,0-6.474-0.74-9.157-0.74c-3.885,0-5.875,1.389-5.875,4.118
		c0,2.96,1.666,3.654,7.079,5.134c6.66,1.85,9.066,3.608,9.066,9.021c0,6.938-4.349,9.946-10.594,9.946
		c-4.117,0-10.361-1.25-10.361-1.25l0.509-4.117c0,0,6.245,0.833,9.528,0.833c3.933,0,5.736-1.758,5.736-5.089
		c0-2.683-1.433-3.607-6.291-4.765c-6.846-1.758-9.806-3.838-9.806-9.344c0-6.384,4.209-9.02,10.545-9.02
		c4.025,0,10.039,1.109,10.039,1.109L416.249,63.942z"/>
	<path fill="#54585A" d="M448.371,91.143c-0.603,0.184-1.806,0.277-2.824,0.277c-9.943,0-12.905-5.459-12.905-16.19
		c0-10.594,3.008-16.514,12.905-16.514c9.9,0,12.861,5.875,12.861,16.514c0,7.169-1.342,11.749-5.042,14.201l3.886,6.245
		l-4.765,2.221L448.371,91.143z M453.089,75.23c0-7.865-1.435-12.028-7.543-12.028c-6.104,0-7.585,4.163-7.585,12.028
		c0,7.955,1.435,11.702,7.585,11.702C451.701,86.933,453.089,83.325,453.089,75.23z"/>
	<path fill="#54585A" d="M475.71,86.933c4.257,0,6.523-1.896,6.523-6.152V59.224h5.181v21.463c0,7.634-4.117,10.733-11.704,10.733
		c-7.54,0-11.612-3.099-11.612-10.733V59.224h5.183v21.557C469.281,85.083,471.501,86.933,475.71,86.933z"/>
	<path fill="#54585A" d="M493.082,75.23c0-10.594,3.007-16.514,12.907-16.514c9.896,0,12.858,5.875,12.858,16.514
		c0,10.777-2.961,16.19-12.858,16.19C496.042,91.42,493.082,85.915,493.082,75.23z M513.527,75.23
		c0-7.865-1.434-12.028-7.538-12.028c-6.107,0-7.589,4.163-7.589,12.028c0,7.908,1.434,11.702,7.589,11.702
		C512.141,86.933,513.527,83.278,513.527,75.23z"/>
</g>
<g>
	<path fill="#FFFFFF" d="M88.994,58.784h23.397v9.155h-12.159v5.232h9.252v9.154h-9.252v8.914H88.994V58.784z"/>
	<path fill="#FFFFFF" d="M116.91,58.784h11.237v32.456H116.91V58.784z"/>
</g>
<polygon fill="#FFFFFF" points="161.023,91.239 154.146,75.99 160.98,58.784 149.742,58.784 146.916,67.939 144.089,58.784 
	132.852,58.784 139.865,75.99 132.809,91.239 144.046,91.239 146.916,82.326 149.786,91.239 "/>
</svg>
